<svg xmlns="http://www.w3.org/2000/svg" viewBox="0 0 512 512">
  <rect width="512" height="512" rx="96" fill="#0B1220"/>
  <rect x="56" y="56" width="400" height="400" rx="72" fill="url(#grad)"/>
  <defs>
    <linearGradient id="grad" x1="0" y1="0" x2="1" y2="1">
      <stop offset="0%" stop-color="#E8772E"/>
      <stop offset="100%" stop-color="#F5A623"/>
    </linearGradient>
  </defs>
  <!-- Book -->
  <rect x="148" y="152" width="90" height="208" rx="10" fill="white" opacity="0.95"/>
  <rect x="148" y="152" width="90" height="208" rx="10" fill="none" stroke="white" stroke-width="4"/>
  <rect x="158" y="165" width="70" height="6" rx="3" fill="#E8772E"/>
  <rect x="158" y="180" width="70" height="4" rx="2" fill="#E8772E" opacity="0.6"/>
  <rect x="158" y="193" width="50" height="4" rx="2" fill="#E8772E" opacity="0.4"/>
  <!-- Circuit/digital lines -->
  <rect x="270" y="152" width="94" height="94" rx="12" fill="white" opacity="0.15"/>
  <circle cx="317" cy="199" r="18" fill="none" stroke="white" stroke-width="6"/>
  <line x1="317" y1="167" x2="317" y2="181" stroke="white" stroke-width="5" stroke-linecap="round"/>
  <line x1="317" y1="217" x2="317" y2="231" stroke="white" stroke-width="5" stroke-linecap="round"/>
  <line x1="285" y1="199" x2="299" y2="199" stroke="white" stroke-width="5" stroke-linecap="round"/>
  <line x1="335" y1="199" x2="349" y2="199" stroke="white" stroke-width="5" stroke-linecap="round"/>
  <!-- Bottom digital bar -->
  <rect x="270" y="266" width="94" height="94" rx="12" fill="white" opacity="0.15"/>
  <rect x="285" y="295" width="14" height="36" rx="4" fill="white" opacity="0.8"/>
  <rect x="306" y="283" width="14" height="48" rx="4" fill="white"/>
  <rect x="327" y="305" width="14" height="26" rx="4" fill="white" opacity="0.8"/>
  <rect x="348" y="290" width="7" height="41" rx="3.5" fill="white" opacity="0.6"/>
</svg>
